<?xml version="1.0" encoding="utf-8"?>
<!-- Generator: Adobe Illustrator 27.0.0, SVG Export Plug-In . SVG Version: 6.00 Build 0)  -->
<svg version="1.1" id="Слой_1" xmlns="http://www.w3.org/2000/svg" xmlns:xlink="http://www.w3.org/1999/xlink" x="0px" y="0px"
	 viewBox="0 0 395.8 392.2" style="enable-background:new 0 0 395.8 392.2;" xml:space="preserve">
<style type="text/css">
	.st0{fill:#333D5B;}
	.st1{fill:#303C47;}
	.st2{fill:#9196AB;}
	.st3{fill:#D6DFE6;}
	.st4{fill:#83869C;}
	.st5{fill:#FBC743;}
	.st6{fill:#FDC943;}
	.st7{fill:#6E7582;}
	.st8{fill:#303D5C;}
	.st9{fill:#D2DBE4;}
	.st10{fill:#394261;}
	.st11{fill:#81D8FB;}
	.st12{fill:#ABDDF4;}
</style>
<g>
	<path class="st0" d="M63.6,392.2c-0.5-1.2-1.7-1-2.6-1.3c-14.5-4.8-23-16.3-23.1-31.6c-0.1-21.7,0-43.4-0.1-65.1
		c0-65.3,0-130.7,0-196C37.9,76.4,51.2,63,73.2,63c5,0,10,0.1,14.9,0c5.7-0.1,5.1,0.9,5.2-5c0-17.5,0-35,0-52.4c0-2.1,0.3-4,1.8-5.5
		c0.8,0,1.5,0,2.3,0c4.2,4.1,8.4,8.1,12.4,12.4c1.7,1.8,2.7,1.6,4.2-0.1c2.9-3.2,6.2-6.1,9.1-9.3c2.4-2.7,4.5-2.8,7-0.1
		c2.9,3.1,6.1,5.8,8.8,9c2.1,2.4,3.4,2,5.3-0.1c2.6-2.9,5.6-5.6,8.3-8.4c3.4-3.4,4.1-3.4,7.5-0.1c2.8,2.8,5.7,5.5,8.3,8.4
		c2,2.3,3.4,2.7,5.6,0.1c2.7-3.2,5.9-6,8.9-9c2-2,3.8-2.1,5.9,0c3.3,3.4,6.7,6.6,10,10c1.2,1.2,2,1.5,3.4,0.1
		c4.1-4.3,8.3-8.6,12.5-12.8c1,0,2,0,3.1,0c0.6,1.2,2,2.2,1.4,3.8c-1.9,0.4-1.4,1.9-1.4,3.1c0,17.3,0,34.7,0,52
		c0,1.2-0.5,2.7,1.4,3.1c0.9,1.7,2.5,0.9,3.8,0.9c8.1,0.3,16.3-0.6,24.4,0.6c15.1,2.1,26.8,15.2,27.1,30.4
		c0.2,12.2,0.1,24.5,0.1,36.7c0,1.2-0.6,2.6,0.7,3.5c0.6,0.2,1.1,0.6,1.7,0.6c18,0.6,36-1.3,53.9,1.6c2.7,0.4,4.5-2.3,7.2-1.6
		c8.2-0.9,16.7,8.2,16.6,17.7c-0.2,18.6-0.1,37.3-0.1,55.9c0,34.3,0.2,68.6-0.1,103c-0.1,12-6,19.9-19.4,19.6
		c-18.7-0.4-37.5,0-56.3-0.2c-3.7,0-4.4,1.1-4.3,4.5c0.2,7.9,0.1,15.8,0.1,23.7c-0.1,16.8-9.7,28.8-26.1,32.6
		c-0.3,0.1-0.6,0.4-0.8,0.6C186.2,392.2,124.9,392.2,63.6,392.2z M324.8,140.4c-0.1,0.2,0,0.3,0.1,0.5c0,59.2,0,118.3-0.1,177.5
		c0,1.3,0.1,2.6,0,3.8c-0.2,2,0.5,2.8,2.6,2.7c2.7-0.1,5.3,0.1,8,0.1c1.8,2.9,5.1,1.9,6.7,1c2.6-1.5,5.9-3.3,5.5-7.3l0,0
		c2.7,0.6,3.2-0.8,3.2-3.2c0-53.8,0-107.6,0-161.4c0-2.7-1-5-3-6.9c-1.6-2.5-3.7-4.5-6.2-6.2c-0.2-1.1-0.8-1.6-1.9-1.5
		C334.8,140,329.7,138.3,324.8,140.4z M274.3,140.5l0.3,0.2c-0.5,0.8,0.1,2-1,2.6c-1.6-0.6-0.3-2.7-2.5-3.9c0,2.8,0,5.2,0,7.6
		c-0.8,0-1.7,0-2.5,0c-0.8-1.6-0.5-3.2-0.5-4.9c0-15.9,0-31.8,0-47.7c0-11-7.7-20.8-18.4-24c-9.4-2.1-19-1.4-28.6-1.3
		c-1.9,0-2.1,1.4-2.1,2.9c0.1,3.6,0.2,7.2,0,10.7c-0.2,3,1.1,3.7,3.8,3.6c5.1-0.2,10.2,0,15.3,0c1.9,0,3.2,0.7,3.2,2.9
		c0.1,2.1-1.1,3-3,3.2c-1.1,0.1-2.3,0.1-3.4,0.1c-41,0-81.9,0.1-122.9,0.1c-12.5,0-25,0-37.5-0.1c-2.2,0-4.2-0.4-4.1-3.3
		c0.1-2.7,2-2.8,4.1-2.8c5,0,10-0.1,14.9,0c2.7,0.1,3.7-0.9,3.5-3.6c-0.2-3.4-0.2-6.9,0-10.3c0.1-2.7-1-3.6-3.6-3.5
		c-6.4,0.1-12.8,0.5-19.1,0.3c-13-0.5-26.1,11.3-26.1,26.3c0.2,88.2,0.1,176.4,0.1,264.6c0,1.1,0,2.3,0.2,3.4
		c1.2,7.2,4.2,13.3,10.7,17.2c4.4,3.6,9.6,5.1,15.3,5.1c57.1,0,114.3,0,171.4,0c14.9,0,26.3-11.5,26.4-26.5
		c0-13.4,0.1-26.8,0.2-40.2c3.1-0.3,2.9-2.5,2.9-4.8c0-55.8,0-111.7,0-167.5c2.3,0.5,1.5,2.4,1.5,3.7c0.1,12,0,24,0,35.9
		c0,42.6,0,85.1,0,127.7c0,1.4-1,3.5,1.4,4.2c0.6,1.9-0.6,4.1,0.8,5.9c6.1,0.1,12.2-0.1,18.3,0.3c3.3,0.2,4-0.8,4-4
		c-0.1-57.7-0.1-115.5-0.1-173.2c0-2.3-0.1-4.6-0.2-6.9c0-0.1,0.1-0.3,0.1-0.4c-0.3-0.6-0.9-0.9-1.5-0.9c-6.5,0-13,0-19.5,0
		C275.3,139.4,274.6,139.7,274.3,140.5z M100,10.8c-0.3,1.4-0.5,1.7-0.5,2c0,23.6,0,47.2-0.1,70.8c0,3.1,1.7,2.8,3.7,2.8
		c35.5,0,70.9,0,106.4,0.1c3,0,3.6-0.9,3.5-3.7c-0.1-23-0.1-45.9-0.1-68.9c0-0.8,0.4-1.8-0.9-3.1c-2.6,2.8-5.1,5.6-7.8,8.3
		c-3.6,3.6-4.3,3.5-7.8,0.1c-2.8-2.8-5.7-5.5-8.3-8.4c-1.7-1.9-2.8-2.2-4.7-0.1c-3,3.3-6.3,6.3-9.4,9.5c-2,2-3.8,2-5.9-0.1
		c-3.2-3.3-6.6-6.4-9.7-9.8c-1.8-2-2.8-1.6-4.5,0.1c-2.9,3.2-6.2,6.1-9.1,9.2c-2.5,2.7-4.6,2.4-7-0.1c-3-3.3-6.4-6.3-9.4-9.5
		c-1.4-1.5-2.3-1.5-3.6-0.1c-3.2,3.3-6.5,6.5-9.7,9.8c-2.3,2.4-4.4,2.7-6.8,0C105.8,16.9,103.1,14.1,100,10.8z M303.3,232.5
		C303.3,232.5,303.3,232.5,303.3,232.5c0,12.2,0,24.5,0,36.7c0,17.2,0.1,34.5-0.1,51.7c0,3,0.7,4.2,3.8,3.9c2.3-0.2,4.6-0.3,6.9,0
		c4,0.6,4.8-1.1,4.8-4.9c-0.1-56.1-0.1-112.3-0.1-168.4c0-3.6,1.5-8.1-0.6-10.4c-2.3-2.5-7-0.5-10.6-0.9c-3.5-0.5-4.2,1-4.2,4.3
		C303.4,173.8,303.3,203.2,303.3,232.5z"/>
	<path class="st1" d="M219,62.1c-1.9-0.4-1.4-1.9-1.4-3.1c0-17.3,0-34.7,0-52c0-1.2-0.5-2.7,1.4-3.1C219,23.3,219,42.7,219,62.1z"/>
	<path class="st1" d="M337.9,134.8c-2.7-0.8-4.6,2-7.2,1.6c-17.9-2.9-35.9-1-53.9-1.6c-0.6,0-1.1-0.4-1.7-0.6
		c20.3,0,40.6-0.1,60.9-0.1C336.6,134.1,337.5,133.9,337.9,134.8z"/>
	<path class="st2" d="M55.1,380.9c-6.5-3.9-9.5-10-10.7-17.2c-0.2-1.1-0.2-2.3-0.2-3.4c0-88.2,0.1-176.4-0.1-264.6
		c0-14.9,13.1-26.7,26.1-26.3c6.3,0.2,12.7-0.2,19.1-0.3c2.6-0.1,3.7,0.8,3.6,3.5c-0.2,3.4-0.2,6.9,0,10.3c0.1,2.6-0.9,3.7-3.5,3.6
		c-5-0.1-10,0-14.9,0c-2,0-4,0.1-4.1,2.8c-0.1,2.9,1.8,3.3,4.1,3.3c12.5,0,25,0.1,37.5,0.1c41,0,81.9-0.1,122.9-0.1
		c1.1,0,2.3,0,3.4-0.1c1.9-0.2,3.1-1.1,3-3.2c-0.1-2.2-1.3-2.9-3.2-2.9c-5.1,0-10.2-0.1-15.3,0c-2.7,0.1-4-0.6-3.8-3.6
		c0.2-3.6,0.1-7.1,0-10.7c0-1.6,0.2-2.9,2.1-2.9c9.5,0,19.1-0.8,28.6,1.3c4.5,5.6,5.3,12.3,5.3,19c0.1,85.4,0.2,170.7-0.1,256.1
		c0,6.4-0.2,13-3.7,19c-5.6,9.8-13.7,15.2-25,15.2c-55.5,0.1-111,0-166.5,0.1C58.2,380,56.4,379.2,55.1,380.9z M156.1,182.4
		c26.8,0,53.6,0,80.4,0c5,0,5.6-0.6,5.6-5.4c0-20.2,0-40.3,0-60.5c0-4.8-0.6-5.4-5.6-5.4c-53.6,0-107.2,0-160.8,0
		c-4.9,0-5.2,0.2-5.2,5.2c0,20.2,0,40.3,0,60.5c0,5.4,0.3,5.6,5.6,5.6C102.7,182.4,129.4,182.4,156.1,182.4z M156.2,366.1
		c6.3,0,12.5-0.1,18.8,0c3.5,0.1,4.9-1.3,4.9-4.7c0-7.5,0-15.1,0-22.6c0-3.2-1.4-4.7-4.6-4.7c-12.8,0-25.5,0-38.3,0
		c-2.9,0-4.5,1.3-4.4,4.4c0.1,7.7,0.1,15.3,0,23c0,3.3,1.3,4.6,4.5,4.6C143.5,366.1,149.8,366.1,156.2,366.1z M218.4,366.1
		c6.5,0,13,0,19.5,0c2.6,0,4.2-1.1,4.2-3.8c0-8,0-16.1,0-24.1c0-2.6-1.4-4.1-4-4.1c-12.9,0-25.7,0-38.6,0c-3.1,0-4.7,1.7-4.7,4.8
		c0,7.5,0,15,0,22.6c0,3.3,1.5,4.8,4.9,4.7C205.9,366,212.2,366.1,218.4,366.1z M218.3,291.8c-6.5,0-13,0.1-19.5,0
		c-3.2-0.1-4.3,1.3-4.2,4.3c0.1,7.4,0,14.8,0,22.2c0,4.4,0.6,5.1,5.1,5.1c12.4,0,24.7,0,37.1,0c4.2,0,5.1-0.9,5.1-5.2
		c0.1-7.3,0-14.5,0-21.8c0-3.2-1.3-4.6-4.6-4.6C231,291.8,224.6,291.7,218.3,291.8z M218,280.3c6.2,0,12.5-0.1,18.7,0
		c3.6,0.1,5.2-1.5,5.2-5c0-7.5,0-15,0-22.6c0-2.9-1.5-4.5-4.4-4.5c-12.7,0-25.5,0-38.2,0c-3.4,0-4.7,1.6-4.7,5
		c0.1,7.4,0.1,14.8,0,22.2c-0.1,3.7,1.5,5,5.1,4.9C205.7,280.2,211.9,280.3,218,280.3z M218.3,237.3
		C218.3,237.3,218.3,237.3,218.3,237.3c5.9,0,11.7,0,17.6,0c4.8,0,5.9-1.1,6-5.7c0.1-7,0-14,0-21c0-4.2-1-5.2-5.2-5.2
		c-12.4,0-24.7,0-37.1,0c-4.4,0-5,0.7-5,5.2c0,7.3,0.1,14.5-0.1,21.8c-0.1,3.7,1.6,5,5,5C205.8,237.3,212.1,237.3,218.3,237.3z
		 M93.9,205.3c-6.2,0-12.5,0-18.7,0c-4.5,0-5.3,0.8-5.3,5.4c0,7,0,14,0,21c0,4.5,0.9,5.5,5.3,5.5c12.4,0.1,24.7,0,37.1,0
		c3.6,0,5-1.6,5-5.1c-0.1-7.3,0-14.5,0-21.8c0-4.1-1-5.1-5.3-5.1C105.9,205.3,99.9,205.3,93.9,205.3z M93.5,280.3
		c6.1,0,12.2,0,18.3,0c4.3,0,5.3-1,5.3-5.1c0-7.3-0.1-14.5,0-21.8c0.1-3.5-1.3-5.2-4.9-5.2c-12.5,0.1-25,0-37.5,0
		c-3.6,0-5,1.6-5,5.1c0.1,7.3,0,14.5,0,21.8c0,4.1,1,5.1,5.3,5.1C81.3,280.3,87.4,280.3,93.5,280.3z M155.9,248.4
		C155.9,248.3,155.9,248.3,155.9,248.4c-6.4,0-12.7,0-19.1,0c-3,0-4.4,1.3-4.4,4.4c0.1,7.8,0.1,15.5,0,23.3
		c-0.1,3.2,1.3,4.3,4.3,4.3c12.7,0,25.5-0.1,38.2,0c3.1,0,4.4-1.2,4.4-4.3c-0.1-7.8-0.1-15.5,0-23.3c0-3-1.2-4.4-4.3-4.4
		C168.6,248.4,162.3,248.4,155.9,248.4z M93.8,366.3c6.4,0,12.8-0.1,19.1,0c2.9,0.1,4.3-1,4.3-4c0-7.8,0-15.6,0-23.4
		c0-3-1.4-4.3-4.5-4.3c-12.8,0.1-25.5,0.1-38.3,0c-3.3,0-4.6,1.4-4.5,4.6c0.1,7.4,0.1,14.8,0,22.2c-0.1,3.4,1.4,4.8,4.8,4.8
		C81,366.2,87.4,366.3,93.8,366.3z M156.1,205.4c-6.4,0-12.7,0.1-19.1,0c-3.1,0-4.7,1-4.7,4.4c0.2,7.6,0.2,15.3,0,22.9
		c-0.1,3.6,1.7,4.7,4.9,4.7c12.5,0,25-0.1,37.4,0c3.2,0,4.7-1.2,4.6-4.5c-0.1-7.6-0.1-15.3,0-22.9c0.1-3.5-1.5-4.7-4.9-4.6
		C168.4,205.5,162.3,205.4,156.1,205.4z M93.7,291.8C93.7,291.8,93.7,291.7,93.7,291.8c-6.5,0-13,0-19.5,0c-2.8,0-4.4,1-4.3,4
		c0,7.8,0,15.6,0,23.4c0,2.7,1.2,4.2,4.2,4.2c12.9-0.1,25.8,0,38.7,0c3,0,4.5-1.2,4.5-4.3c-0.1-7.7-0.1-15.3,0-23
		c0-3-1.2-4.4-4.3-4.3C106.5,291.9,100.1,291.8,93.7,291.8z M156.1,291.8C156.1,291.8,156.1,291.7,156.1,291.8c-6.5,0-13,0-19.5,0
		c-2.9,0-4.2,1-4.2,4c0.1,7.8,0.1,15.5,0,23.3c-0.1,3.2,1.4,4.3,4.4,4.3c12.7,0,25.5,0,38.2,0c3,0,4.4-1.1,4.3-4.3
		c-0.1-7.6-0.1-15.3,0-22.9c0.1-3.4-1.4-4.5-4.6-4.4C168.5,291.9,162.3,291.8,156.1,291.8z"/>
	<path class="st3" d="M100,10.8c3.1,3.3,5.8,6,8.4,8.9c2.3,2.7,4.5,2.4,6.8,0c3.2-3.3,6.5-6.5,9.7-9.8c1.4-1.4,2.3-1.4,3.6,0.1
		c3,3.3,6.3,6.3,9.4,9.5c2.4,2.6,4.5,2.9,7,0.1c2.9-3.2,6.2-6.1,9.1-9.2c1.6-1.7,2.7-2.1,4.5-0.1c3.1,3.4,6.5,6.5,9.7,9.8
		c2,2.1,3.9,2.1,5.9,0.1c3.1-3.2,6.4-6.2,9.4-9.5c1.9-2.1,3-1.8,4.7,0.1c2.6,3,5.5,5.6,8.3,8.4c3.4,3.4,4.2,3.5,7.8-0.1
		c2.7-2.7,5.2-5.5,7.8-8.3c1.2,1.3,0.9,2.3,0.9,3.1c0,23,0,45.9,0.1,68.9c0,2.8-0.6,3.7-3.5,3.7c-35.5-0.1-70.9-0.1-106.4-0.1
		c-2,0-3.7,0.3-3.7-2.8c0.1-23.6,0.1-47.2,0.1-70.8C99.5,12.5,99.6,12.2,100,10.8z M156.3,67.9c12.7,0,25.5,0,38.2,0
		c2.3,0,5.1,0.2,5.2-3c0.1-3.4-2.9-3.3-5.3-3.3c-0.3,0-0.5,0-0.8,0c-24.9,0-49.7,0-74.6,0c-1.5,0-3.1,0.1-4.5,0.4
		c-1.4,0.3-2,1.4-2,2.9c0,1.4,0.6,2.5,2.1,2.8c1.2,0.2,2.5,0.3,3.8,0.3C131.1,67.9,143.7,67.9,156.3,67.9z M156.2,47.1
		c12.2,0,24.5,0,36.7,0c1.5,0,3.1-0.1,4.6-0.2c1.6-0.1,2.1-1.3,2.3-2.6c0.2-1.4-0.5-2.6-1.9-3c-1.1-0.3-2.3-0.4-3.4-0.4
		c-25.5,0-51,0-76.5,0c-1.1,0-2.3,0.1-3.4,0.3c-1.6,0.4-2.2,1.6-2.1,3.2c0.1,1.4,0.9,2.4,2.4,2.6c1.4,0.2,2.8,0.2,4.2,0.2
		C131.5,47.1,143.9,47.1,156.2,47.1z"/>
	<path class="st4" d="M55.1,380.9c1.2-1.7,3.1-1,4.6-1c55.5,0,111,0,166.5-0.1c11.3,0,19.4-5.5,25-15.2c3.5-6,3.7-12.7,3.7-19
		c0.2-85.4,0.2-170.7,0.1-256.1c0-6.6-0.8-13.4-5.3-19c10.7,3.1,18.3,13,18.4,24c0.1,15.9,0,31.8,0,47.7c0,1.6-0.3,3.3,0.5,4.9
		c-0.9,8.4-0.5,16.8-0.5,25.2c0,47.4,0,94.8,0,142.2c0,1.7,0.1,3.3,0.1,5c-0.1,13.4-0.1,26.8-0.2,40.2
		c-0.1,14.9-11.5,26.4-26.4,26.5c-57.1,0-114.3,0-171.4,0C64.8,386,59.6,384.5,55.1,380.9z"/>
	<path class="st5" d="M341.6,140.9c2.5,1.6,4.6,3.6,6.2,6.2c0,0.6,0,1.2,0.1,1.8c0,0.6-0.1,1.3-0.1,1.9c0,44.9,0,89.7,0,134.6
		c0,10.1,0.1,20.1,0.1,30.2c-0.1,1-0.2,2-0.3,3c0,0,0,0,0,0c-3,4.1-6.8,6.7-12.2,6.3c-2.7,0-5.4-0.2-8-0.1c-2,0.1-2.8-0.7-2.6-2.7
		c0.1-1.3,0-2.5,0-3.8c0-59.2,0-118.3,0.1-177.5c5,0,10,0,15.1,0C340.6,140.9,341.1,140.9,341.6,140.9z"/>
	<path class="st6" d="M297,140.7c0.1,2.3,0.2,4.6,0.2,6.9c0,57.7,0,115.5,0.1,173.2c0,3.2-0.7,4.2-4,4c-6.1-0.3-12.2-0.2-18.3-0.3
		c-0.5-3.6,0.8-7,0.8-10.6c-0.1-54.1,0-108.1,0-162.2c0-1.8,0.1-3.5-0.5-5.3c-0.6-1.6-0.3-3.3,0.5-4.8c2.6-0.8,5.2-1,7.9-1
		C288.1,140.9,292.6,140.8,297,140.7z"/>
	<path class="st7" d="M303.3,232.5c0-29.3,0.1-58.7-0.1-88c0-3.3,0.7-4.7,4.2-4.3c3.6,0.5,8.3-1.5,10.6,0.9
		c2.1,2.3,0.6,6.8,0.6,10.4c0,56.1,0,112.3,0.1,168.4c0,3.8-0.8,5.4-4.8,4.9c-2.3-0.3-4.6-0.3-6.9,0c-3.1,0.3-3.9-0.9-3.8-3.9
		c0.1-17.2,0.1-34.5,0.1-51.7C303.4,257,303.4,244.8,303.3,232.5C303.3,232.5,303.3,232.5,303.3,232.5z"/>
	<path class="st8" d="M268.3,319.4c0-1.7-0.1-3.3-0.1-5c0-47.4,0-94.8,0-142.2c0-8.4-0.4-16.8,0.5-25.2c0.8,0,1.7,0,2.5,0l0,0
		c0,55.8,0,111.7,0,167.5C271.2,316.9,271.4,319.1,268.3,319.4z"/>
	<path class="st1" d="M347.7,318.6c0.1-1,0.2-2,0.3-3c1-1.4,0.5-3,0.5-4.4c0-52.6,0-105.2,0-157.8c0-1.5,0.4-3.1-0.6-4.4
		c0-0.6,0-1.2-0.1-1.8c2,1.9,3,4.2,3,6.9c0,53.8,0,107.6,0,161.4C350.8,317.7,350.4,319.1,347.7,318.6z"/>
	<path class="st8" d="M271.2,147.1c0-2.4,0-4.8,0-7.6c2.2,1.2,0.9,3.2,2.5,3.9c-0.4,2.5,0.7,4.9,0.7,7.5
		c-0.1,54.6-0.1,109.1-0.1,163.7c0,1.4-0.1,2.8-0.1,4.2c-2.5-0.7-1.4-2.7-1.4-4.2c-0.1-42.6,0-85.1,0-127.7c0-12,0-24,0-35.9
		C272.7,149.5,273.5,147.6,271.2,147.1C271.2,147.1,271.2,147.1,271.2,147.1z"/>
	<path class="st5" d="M274.2,318.7c0-1.4,0.1-2.8,0.1-4.2c0-54.6,0-109.1,0.1-163.7c0-2.6-1.1-4.9-0.7-7.5c1.1-0.6,0.5-1.8,1-2.6
		c0.4,0.3,0.8,0.7,1.2,1c-0.9,1.5-1.1,3.2-0.5,4.8c0.6,1.8,0.5,3.5,0.5,5.3c0,54.1,0,108.1,0,162.2c0,3.6-1.3,7-0.8,10.6
		C273.5,322.8,274.8,320.6,274.2,318.7z"/>
	<path class="st1" d="M335.5,324.9c5.3,0.4,9.2-2.2,12.2-6.3c0.4,4.1-2.9,5.9-5.5,7.3C340.6,326.8,337.3,327.8,335.5,324.9z"/>
	<path class="st9" d="M275.8,141.7c-0.4-0.3-0.8-0.7-1.2-1c0,0-0.3-0.2-0.3-0.2c7.6-0.1,15.2-0.1,22.8-0.2c0,0.1,0,0.3-0.1,0.4
		c-4.5,0-8.9,0.1-13.4,0C281,140.7,278.3,140.9,275.8,141.7z"/>
	<path class="st1" d="M297.1,140.4c-7.6,0.1-15.2,0.1-22.8,0.2c0.3-0.9,1-1.1,1.8-1.1c6.5,0,13,0,19.5,0
		C296.3,139.4,296.8,139.7,297.1,140.4z"/>
	<path class="st1" d="M341.6,140.9c-0.5,0-1.1-0.1-1.6-0.1c-5-1.3-10.1-0.5-15.2-0.5c4.9-2.1,10-0.4,14.9-0.9
		C340.8,139.4,341.5,139.8,341.6,140.9z"/>
	<path class="st2" d="M324.8,140.4c5.1,0,10.2-0.9,15.2,0.5c-5,0-10,0-15.1,0C324.8,140.7,324.8,140.5,324.8,140.4z"/>
	<path class="st8" d="M156.1,182.4c-26.7,0-53.3,0-80,0c-5.4,0-5.6-0.3-5.6-5.6c0-20.2,0-40.3,0-60.5c0-4.9,0.3-5.2,5.2-5.2
		c53.6,0,107.2,0,160.8,0c5,0,5.6,0.6,5.6,5.4c0,20.2,0,40.3,0,60.5c0,4.8-0.6,5.4-5.6,5.4C209.7,182.4,182.9,182.4,156.1,182.4z
		 M172.8,118c-1.2-1.5-2.8-0.8-4.3-0.8c-29.1,0-58.2,0-87.3,0c-1,0-2,0.1-3.1,0c-1.8,0-1.7,1.1-1.5,2.3c-0.1,18.2-0.1,36.3-0.2,54.5
		c0,2,1,2.2,2.6,2.2c8.4-0.1,16.8-0.1,25.2-0.1c4.6,0,9.2,0,13.7,0c5.6,0,11.2,0,16.9,0c12.3,0,24.5,0,36.8,0c20.5,0,41,0,61.5,0.2
		c2.7,0,2.8-1.2,2.8-3.2c-0.1-17.6-0.1-35.2,0.1-52.8c0-2.7-1.1-3.1-3.2-3c-19.3-0.1-38.5-0.1-57.8-0.2c-0.7,0-1.5-0.1-2.1,0.6
		L172.8,118z M172.2,179.6c0,0.3,0,0.5,0,0.8c20.1,0,40.1,0,60.2,0c0-0.3,0-0.5,0-0.8C212.3,179.6,192.2,179.6,172.2,179.6z"/>
	<path class="st0" d="M156.2,366.1c-6.4,0-12.8-0.1-19.1,0c-3.3,0-4.6-1.3-4.5-4.6c0.1-7.7,0.1-15.3,0-23c0-3.1,1.5-4.4,4.4-4.4
		c12.8,0,25.5,0,38.3,0c3.2,0,4.6,1.5,4.6,4.7c0,7.5,0,15.1,0,22.6c0,3.4-1.5,4.8-4.9,4.7C168.7,366,162.5,366.1,156.2,366.1z
		 M156.3,360c4.8,0,9.7-0.1,14.5,0c1.9,0,2.8-0.5,2.7-2.5c-0.1-4.7-0.1-9.4,0-14.2c0-1.9-0.4-2.8-2.5-2.8c-10,0.1-19.9,0.1-29.9,0
		c-2.2,0-2.5,1-2.5,2.8c0.1,4.6,0.2,9.2,0,13.8c-0.1,2.5,0.8,3,3.1,2.9C146.6,359.9,151.4,360,156.3,360z"/>
	<path class="st0" d="M218.4,366.1c-6.2,0-12.5-0.1-18.7,0.1c-3.5,0.1-4.9-1.3-4.9-4.7c0-7.5,0-15,0-22.6c0-3.1,1.6-4.8,4.7-4.8
		c12.9,0,25.7,0,38.6,0c2.6,0,4,1.5,4,4.1c0,8,0,16.1,0,24.1c0,2.7-1.5,3.8-4.2,3.8C231.4,366.1,224.9,366.1,218.4,366.1z
		 M218.6,360c5,0,9.9-0.1,14.9,0c1.8,0,2.5-0.5,2.5-2.4c-0.1-4.8-0.1-9.7,0-14.5c0.1-2.1-0.7-2.6-2.7-2.6c-9.8,0.1-19.6,0.1-29.5,0
		c-1.9,0-2.8,0.6-2.7,2.6c0.1,4.7,0.1,9.4,0,14.2c-0.1,2.3,1,2.7,3,2.7C208.9,359.9,213.7,360,218.6,360z"/>
	<path class="st0" d="M218.3,291.8c6.4,0,12.7,0.1,19.1,0c3.3,0,4.6,1.4,4.6,4.6c-0.1,7.3,0,14.5,0,21.8c0,4.3-0.9,5.2-5.1,5.2
		c-12.4,0-24.7,0-37.1,0c-4.5,0-5.1-0.6-5.1-5.1c0-7.4,0.1-14.8,0-22.2c0-3.1,1.1-4.4,4.2-4.3C205.3,291.9,211.8,291.8,218.3,291.8z
		 M218.1,317.2c4.8,0,9.7-0.1,14.5,0c2,0,3-0.4,2.9-2.7c-0.1-4.7-0.1-9.4,0-14.1c0.1-2.1-0.9-2.6-2.7-2.6c-9.8,0.1-19.6,0.1-29.4,0
		c-2.3,0-2.7,0.9-2.7,2.9c0.1,4.6,0.2,9.2,0,13.8c-0.1,2.3,0.8,2.8,2.9,2.7C208.4,317.1,213.2,317.2,218.1,317.2z"/>
	<path class="st0" d="M218,280.3c-6.1,0-12.2-0.1-18.4,0c-3.6,0.1-5.1-1.2-5.1-4.9c0.1-7.4,0.1-14.8,0-22.2c-0.1-3.4,1.3-5,4.7-5
		c12.7,0,25.5,0,38.2,0c3,0,4.4,1.6,4.4,4.5c0,7.5,0,15,0,22.6c0,3.4-1.5,5.1-5.2,5C230.5,280.2,224.2,280.3,218,280.3z
		 M218.2,254.6C218.2,254.6,218.2,254.6,218.2,254.6c-4.8,0-9.7,0.1-14.5-0.1c-2.3-0.1-3.1,0.6-3.1,3c0.2,4.6,0.2,9.2,0,13.7
		c-0.1,2.4,0.7,3,3,3c9.7-0.1,19.3-0.1,29,0c2.1,0,3-0.5,2.9-2.8c-0.1-4.7-0.1-9.4,0-14.1c0.1-2.2-0.8-2.8-2.9-2.8
		C227.9,254.6,223.1,254.6,218.2,254.6z"/>
	<path class="st0" d="M218.3,237.3c-6.2,0-12.5,0-18.7,0c-3.4,0-5.1-1.2-5-5c0.2-7.3,0-14.5,0.1-21.8c0-4.5,0.6-5.2,5-5.2
		c12.4,0,24.7,0,37.1,0c4.2,0,5.2,1,5.2,5.2c0,7,0,14,0,21c0,4.7-1.2,5.7-6,5.7C230,237.3,224.2,237.3,218.3,237.3
		C218.3,237.3,218.3,237.3,218.3,237.3z M218.3,211.5c-5,0-9.9,0.1-14.9,0c-1.8,0-2.8,0.2-2.8,2.4c0.1,5,0.1,9.9,0,14.9
		c0,2,0.8,2.3,2.5,2.3c9.9,0,19.9-0.1,29.8,0c2,0,2.7-0.7,2.7-2.7c-0.1-4.7-0.1-9.4,0-14.1c0-2.1-0.6-2.9-2.8-2.9
		C228,211.6,223.2,211.5,218.3,211.5z"/>
	<path class="st0" d="M93.9,205.3c6,0,12,0,18,0c4.3,0,5.3,1,5.3,5.1c0,7.3-0.1,14.5,0,21.8c0.1,3.5-1.4,5.1-5,5.1
		c-12.4-0.1-24.7,0-37.1,0c-4.4,0-5.3-1-5.3-5.5c0-7,0-14,0-21c0-4.6,0.8-5.4,5.3-5.4C81.4,205.3,87.6,205.3,93.9,205.3z
		 M93.5,231.1c5,0,9.9-0.1,14.9,0c2,0,2.7-0.6,2.7-2.7c-0.1-4.7-0.1-9.4,0-14.1c0.1-2.1-0.6-2.9-2.8-2.9c-9.8,0.1-19.6,0.1-29.4,0
		c-2.1,0-3,0.5-2.9,2.8c0.2,4.6,0.2,9.2,0,13.7c-0.1,2.7,1,3.2,3.4,3.1C84.1,231,88.8,231.1,93.5,231.1z"/>
	<path class="st0" d="M93.5,280.3c-6.1,0-12.2,0-18.3,0c-4.2,0-5.3-1-5.3-5.1c0-7.3,0.1-14.5,0-21.8c-0.1-3.5,1.4-5.1,5-5.1
		c12.5,0.1,25,0.1,37.5,0c3.6,0,5,1.6,4.9,5.2c-0.1,7.3,0,14.5,0,21.8c0,4.1-1.1,5-5.3,5.1C105.7,280.3,99.6,280.3,93.5,280.3z
		 M93.5,274.2c5,0,9.9,0,14.9,0c1.6,0,2.7-0.1,2.6-2.2c-0.1-5.1-0.1-10.2,0-15.3c0-1.8-0.8-2.1-2.4-2.1c-10.1,0-20.1,0-30.2,0
		c-1.8,0-2.5,0.5-2.5,2.4c0.1,4.8,0.1,9.7,0,14.5c-0.1,2.3,0.9,2.8,3,2.7C83.8,274.1,88.7,274.1,93.5,274.2z"/>
	<path class="st0" d="M155.9,248.4c6.4,0,12.7,0.1,19.1,0c3.1,0,4.4,1.3,4.3,4.4c-0.1,7.8-0.1,15.5,0,23.3c0,3.1-1.3,4.3-4.4,4.3
		c-12.7-0.1-25.5-0.1-38.2,0c-3,0-4.4-1.2-4.3-4.3c0.1-7.8,0.1-15.5,0-23.3c0-3.1,1.3-4.4,4.4-4.4
		C143.2,248.4,149.5,248.3,155.9,248.4C155.9,248.3,155.9,248.3,155.9,248.4z M155.9,274.1c4.8,0,9.7-0.1,14.5,0
		c1.8,0,2.8-0.2,2.8-2.4c-0.1-5-0.1-9.9,0-14.9c0-1.9-0.8-2.3-2.5-2.3c-9.9,0.1-19.9,0.1-29.8,0c-1.8,0-2.5,0.6-2.4,2.4
		c0.1,4.8,0.1,9.7,0,14.5c-0.1,2.3,0.9,2.7,3,2.7C146.3,274.1,151.1,274.1,155.9,274.1z"/>
	<path class="st0" d="M93.8,366.3c-6.4,0-12.8-0.1-19.1,0c-3.4,0.1-4.8-1.3-4.8-4.8c0.1-7.4,0.1-14.8,0-22.2c0-3.2,1.3-4.7,4.5-4.6
		c12.8,0.1,25.5,0.1,38.3,0c3.1,0,4.5,1.3,4.5,4.3c0,7.8,0,15.6,0,23.4c0,2.9-1.4,4-4.3,4C106.5,366.2,100.1,366.3,93.8,366.3z
		 M93.4,360.2c4.8,0,9.7-0.1,14.5,0c2.2,0.1,3.3-0.4,3.2-2.9c-0.2-4.6-0.2-9.2,0-13.7c0.1-2.3-0.8-2.8-2.9-2.8
		c-9.8,0.1-19.6,0.1-29.4,0c-2.2,0-2.8,0.8-2.8,2.9c0.1,4.6,0.2,9.2,0,13.7c-0.1,2.2,0.7,2.9,2.9,2.8
		C83.7,360.1,88.6,360.2,93.4,360.2z"/>
	<path class="st0" d="M156.1,205.4c6.1,0,12.2,0.1,18.3,0c3.4-0.1,4.9,1.1,4.9,4.6c-0.1,7.6-0.1,15.3,0,22.9c0,3.3-1.4,4.5-4.6,4.5
		c-12.5-0.1-25,0-37.4,0c-3.2,0-5-1.1-4.9-4.7c0.2-7.6,0.1-15.3,0-22.9c-0.1-3.4,1.6-4.4,4.7-4.4
		C143.4,205.4,149.8,205.4,156.1,205.4z M156.1,211.5c-5,0-9.9,0.1-14.9,0c-1.9,0-2.8,0.3-2.7,2.5c0.1,4.8,0.1,9.7,0,14.5
		c0,2,0.7,2.6,2.7,2.6c9.8-0.1,19.6-0.1,29.4,0c1.9,0,2.8-0.4,2.7-2.5c-0.1-4.8-0.1-9.7,0-14.5c0-2-0.6-2.6-2.6-2.6
		C165.8,211.6,161,211.5,156.1,211.5z"/>
	<path class="st0" d="M93.7,291.8c6.4,0,12.8,0.1,19.1,0c3.2-0.1,4.4,1.3,4.3,4.3c-0.1,7.7-0.1,15.3,0,23c0,3.1-1.5,4.3-4.5,4.3
		c-12.9,0-25.8-0.1-38.7,0c-3,0-4.2-1.6-4.2-4.2c0-7.8,0-15.6,0-23.4c0-3,1.5-4,4.3-4C80.7,291.8,87.2,291.7,93.7,291.8
		C93.7,291.7,93.7,291.8,93.7,291.8z M93.6,297.8c-5,0-9.9,0.1-14.9,0c-1.9,0-2.7,0.5-2.7,2.6c0.1,4.7,0.1,9.4,0,14.1
		c0,1.9,0.4,2.7,2.5,2.7c9.9-0.1,19.9-0.1,29.8,0c1.9,0,2.7-0.5,2.7-2.6c-0.1-4.7-0.2-9.4,0-14.1c0.1-2.4-0.9-2.7-2.9-2.7
		C103.3,297.9,98.4,297.8,93.6,297.8z"/>
	<path class="st0" d="M156.1,291.8c6.2,0,12.5,0.1,18.7,0c3.2-0.1,4.7,1,4.6,4.4c-0.2,7.6-0.1,15.3,0,22.9c0.1,3.2-1.3,4.3-4.3,4.3
		c-12.7-0.1-25.5-0.1-38.2,0c-3,0-4.4-1-4.4-4.3c0.1-7.8,0.1-15.5,0-23.3c0-3,1.3-4.1,4.2-4C143.1,291.8,149.6,291.7,156.1,291.8
		C156.1,291.7,156.1,291.8,156.1,291.8z M156,297.8c-5,0-9.9,0.1-14.9,0c-2,0-2.7,0.5-2.6,2.6c0.1,4.8,0.1,9.7,0,14.5
		c0,1.9,0.7,2.3,2.5,2.3c9.9-0.1,19.9-0.1,29.8,0c2.2,0,2.5-1,2.4-2.8c-0.1-4.6-0.2-9.2,0-13.8c0.1-2.5-0.8-3-3.1-2.9
		C165.5,297.9,160.8,297.8,156,297.8z"/>
	<path class="st10" d="M156.3,67.9c-12.6,0-25.2,0-37.9,0c-1.3,0-2.6-0.1-3.8-0.3c-1.5-0.2-2-1.3-2.1-2.8c0-1.4,0.5-2.6,2-2.9
		c1.5-0.3,3-0.4,4.5-0.4c24.9,0,49.7,0,74.6,0c0.3,0,0.5,0,0.8,0c2.5,0,5.4-0.1,5.3,3.3c-0.1,3.2-2.9,3-5.2,3
		C181.8,67.9,169.1,67.9,156.3,67.9z"/>
	<path class="st10" d="M156.2,47.1c-12.4,0-24.7,0-37.1,0c-1.4,0-2.8,0-4.2-0.2c-1.5-0.2-2.2-1.1-2.4-2.6c-0.1-1.6,0.5-2.8,2.1-3.2
		c1.1-0.2,2.3-0.3,3.4-0.3c25.5,0,51,0,76.5,0c1.1,0,2.3,0.1,3.4,0.4c1.4,0.4,2,1.6,1.9,3c-0.2,1.3-0.7,2.5-2.3,2.6
		c-1.5,0.1-3,0.2-4.6,0.2C180.7,47.1,168.5,47.1,156.2,47.1z"/>
	<path class="st4" d="M347.9,148.9c1,1.4,0.6,3,0.6,4.4c0,52.6,0,105.2,0,157.8c0,1.5,0.5,3.1-0.5,4.4c0-10.1-0.1-20.1-0.1-30.2
		c0-44.9,0-89.7,0-134.6C347.8,150.2,347.9,149.5,347.9,148.9z"/>
	<path class="st11" d="M104.3,176.1c-8.4,0-16.8,0.1-25.2,0.1c-1.6,0-2.6-0.2-2.6-2.2c0.1-18.2,0.2-36.3,0.2-54.5
		c2.7-2.9,6.3-1.2,9.2-1.3c18-0.5,36-0.3,53.9-0.2c2.5,0,3.8,2.2,2.2,4c-3.7,4.2-6.7,8.9-9.7,13.4c-5.1,7.6-11.2,14.6-15.7,22.5
		C112.9,164.4,107.4,169.4,104.3,176.1z"/>
	<path class="st11" d="M232.8,117.3c2.1-0.1,3.2,0.2,3.2,3c-0.2,17.6-0.1,35.2-0.1,52.8c0,2-0.1,3.2-2.8,3.2
		c-20.5-0.2-41-0.1-61.5-0.2c2-3.3,3.8-6.8,6.2-9.8c3.9-4.7,7-10,10.8-14.8c3.3-4.3,6.1-9.1,9.7-13.2c3.7-4.3,6.6-9.4,9.7-14.1
		c2.8-4.2,4.9-6.6,10.1-6.3C223,118.1,228,118.8,232.8,117.3z"/>
	<path class="st12" d="M232.8,117.3c-4.8,1.5-9.8,0.8-14.7,0.5c-5.2-0.3-7.3,2.1-10.1,6.3c-3.1,4.7-6,9.8-9.7,14.1
		c-3.6,4.2-6.4,8.9-9.7,13.2c-3.7,4.8-6.9,10.1-10.8,14.8c-2.4,2.9-4.2,6.5-6.2,9.8c-12.3,0-24.5,0-36.8,0c-0.1-1.1,0.3-1.9,0.9-2.8
		c5.2-7.3,10.5-14.6,15.6-22c7-10.1,13.9-20.3,20.9-30.4c0.7-1,1.1-2,0.7-3.2c0.6-0.7,1.4-0.6,2.1-0.6
		C194.3,117.2,213.6,117.3,232.8,117.3z"/>
	<path class="st11" d="M172.9,117.8c0.4,1.2,0,2.2-0.7,3.2c-7,10.1-13.9,20.3-20.9,30.4c-5.1,7.4-10.4,14.7-15.6,22
		c-0.6,0.9-1,1.7-0.9,2.8c-5.6,0-11.2,0-16.9,0c0.1-1-0.2-2.1,0.7-2.8c5.2-3.8,6.8-10.3,11.1-14.9c5.3-5.6,8.8-12.7,13.1-19.2
		c4.2-6.4,9.4-12.1,13.3-18.7c1-1.7,2.4-2.4,4.4-2.4c4.1,0.1,8.1,0,12.2,0L172.9,117.8z"/>
	<path class="st12" d="M172.8,118c-4.1,0-8.1,0.1-12.2,0c-2,0-3.4,0.7-4.4,2.4c-3.8,6.7-9,12.3-13.3,18.7
		c-4.3,6.5-7.9,13.6-13.1,19.2c-4.4,4.6-5.9,11.1-11.1,14.9c-1,0.7-0.7,1.8-0.7,2.8c-4.6,0-9.2,0-13.7,0c3.1-6.7,8.7-11.7,12.3-18.1
		c4.6-7.9,10.6-14.9,15.7-22.5c3.1-4.5,6.1-9.2,9.7-13.4c1.6-1.8,0.3-4-2.2-4c-18,0-36-0.2-53.9,0.2c-2.9,0.1-6.6-1.6-9.2,1.3
		c-0.2-1.2-0.3-2.4,1.5-2.3c1,0,2,0,3.1,0c29.1,0,58.2,0,87.3,0C170,117.2,171.6,116.5,172.8,118z"/>
	<path class="st0" d="M172.2,179.6c20.1,0,40.1,0,60.2,0c0,0.3,0,0.5,0,0.8c-20.1,0-40.1,0-60.2,0
		C172.2,180.1,172.2,179.9,172.2,179.6z"/>
	<path class="st3" d="M156.3,360c-4.8,0-9.7-0.1-14.5,0c-2.2,0.1-3.2-0.4-3.1-2.9c0.2-4.6,0.1-9.2,0-13.8c0-1.8,0.3-2.8,2.5-2.8
		c10,0.1,19.9,0.1,29.9,0c2.1,0,2.6,0.9,2.5,2.8c-0.1,4.7-0.1,9.4,0,14.2c0,2.1-0.8,2.6-2.7,2.5C166,359.9,161.1,360,156.3,360z"/>
	<path class="st3" d="M218.6,360c-4.8,0-9.7-0.1-14.5,0c-2,0-3-0.4-3-2.7c0.1-4.7,0.1-9.4,0-14.2c0-2,0.8-2.6,2.7-2.6
		c9.8,0.1,19.6,0.1,29.5,0c1.9,0,2.7,0.5,2.7,2.6c-0.1,4.8-0.1,9.7,0,14.5c0,1.9-0.7,2.4-2.5,2.4C228.5,359.9,223.5,360,218.6,360z"
		/>
	<path class="st3" d="M218.1,317.2c-4.8,0-9.7-0.1-14.5,0c-2.1,0.1-2.9-0.4-2.9-2.7c0.2-4.6,0.1-9.2,0-13.8c-0.1-2,0.3-3,2.7-2.9
		c9.8,0.1,19.6,0.1,29.4,0c1.9,0,2.8,0.4,2.7,2.6c-0.1,4.7-0.1,9.4,0,14.1c0.1,2.3-0.9,2.7-2.9,2.7
		C227.8,317.1,222.9,317.2,218.1,317.2z"/>
	<path class="st9" d="M218.2,254.6c4.8,0,9.7,0.1,14.5,0c2.1,0,3,0.6,2.9,2.8c-0.1,4.7-0.1,9.4,0,14.1c0.1,2.2-0.8,2.8-2.9,2.8
		c-9.7-0.1-19.3-0.1-29,0c-2.3,0-3.1-0.6-3-3c0.2-4.6,0.2-9.2,0-13.7c-0.1-2.4,0.8-3,3.1-3C208.6,254.7,213.4,254.6,218.2,254.6
		C218.2,254.6,218.2,254.6,218.2,254.6z"/>
	<path class="st9" d="M218.3,211.5c4.8,0,9.7,0.1,14.5,0c2.2-0.1,2.8,0.8,2.8,2.9c-0.1,4.7-0.1,9.4,0,14.1c0,2-0.7,2.7-2.7,2.7
		c-9.9-0.1-19.9-0.1-29.8,0c-1.7,0-2.6-0.3-2.5-2.3c0.1-5,0.1-9.9,0-14.9c-0.1-2.2,1-2.4,2.8-2.4
		C208.4,211.5,213.4,211.5,218.3,211.5z"/>
	<path class="st9" d="M93.5,231.1c-4.7,0-9.4-0.1-14.1,0c-2.3,0.1-3.5-0.4-3.4-3.1c0.2-4.6,0.2-9.2,0-13.7c-0.1-2.2,0.8-2.8,2.9-2.8
		c9.8,0.1,19.6,0.1,29.4,0c2.2,0,2.8,0.7,2.8,2.9c-0.1,4.7-0.1,9.4,0,14.1c0,2-0.7,2.7-2.7,2.7C103.4,231,98.5,231.1,93.5,231.1z"/>
	<path class="st9" d="M93.5,274.1c-4.8,0-9.7-0.1-14.5,0c-2.1,0.1-3-0.4-3-2.7c0.1-4.8,0.1-9.7,0-14.5c0-1.9,0.7-2.4,2.5-2.4
		c10.1,0.1,20.1,0,30.2,0c1.5,0,2.4,0.3,2.4,2.1c-0.1,5.1-0.1,10.2,0,15.3c0,2.1-1,2.2-2.6,2.2C103.4,274.1,98.5,274.2,93.5,274.1z"
		/>
	<path class="st3" d="M155.9,274.1c-4.8,0-9.7-0.1-14.5,0c-2,0-3-0.3-3-2.7c0.2-4.8,0.1-9.7,0-14.5c0-1.8,0.6-2.4,2.4-2.4
		c9.9,0.1,19.9,0,29.8,0c1.7,0,2.5,0.4,2.5,2.3c-0.1,5-0.1,9.9,0,14.9c0.1,2.2-1,2.4-2.8,2.4C165.6,274.1,160.8,274.1,155.9,274.1z"
		/>
	<path class="st3" d="M93.4,360.2c-4.8,0-9.7-0.1-14.5,0c-2.1,0.1-2.9-0.6-2.9-2.8c0.1-4.6,0.1-9.2,0-13.7c-0.1-2.1,0.5-2.9,2.8-2.9
		c9.8,0.1,19.6,0.1,29.4,0c2.1,0,3,0.5,2.9,2.8c-0.2,4.6-0.2,9.2,0,13.7c0.1,2.5-1,3-3.2,2.9C103.1,360.1,98.2,360.2,93.4,360.2z"/>
	<path class="st3" d="M156.1,211.5c4.8,0,9.7,0.1,14.5,0c2-0.1,2.7,0.6,2.6,2.6c-0.1,4.8-0.1,9.7,0,14.5c0.1,2.1-0.8,2.6-2.7,2.5
		c-9.8-0.1-19.6-0.1-29.4,0c-2,0-2.7-0.6-2.7-2.6c0.1-4.8,0.1-9.7,0-14.5c-0.1-2.1,0.9-2.5,2.7-2.5
		C146.2,211.6,151.2,211.5,156.1,211.5z"/>
	<path class="st3" d="M93.6,297.8c4.8,0,9.7,0.1,14.5,0c2,0,3,0.3,2.9,2.7c-0.2,4.7-0.1,9.4,0,14.1c0.1,2.1-0.8,2.6-2.7,2.6
		c-9.9-0.1-19.9-0.1-29.8,0c-2.1,0-2.6-0.8-2.5-2.7c0.1-4.7,0.1-9.4,0-14.1c-0.1-2.1,0.7-2.6,2.7-2.6
		C83.6,297.9,88.6,297.8,93.6,297.8z"/>
	<path class="st3" d="M156,297.8c4.7,0,9.4,0.1,14.1,0c2.3-0.1,3.2,0.5,3.1,2.9c-0.2,4.6-0.1,9.2,0,13.8c0,1.8-0.2,2.8-2.4,2.8
		c-9.9-0.1-19.9-0.1-29.8,0c-1.7,0-2.5-0.4-2.5-2.3c0.1-4.8,0.1-9.7,0-14.5c-0.1-2,0.7-2.6,2.6-2.6
		C146.1,297.9,151.1,297.8,156,297.8z"/>
</g>
</svg>
